<?xml version="1.0" encoding="UTF-8"?>
<svg width="40px" height="40px" viewBox="0 0 40 40" version="1.1" xmlns="http://www.w3.org/2000/svg" xmlns:xlink="http://www.w3.org/1999/xlink">
    <title>icon-linkedin</title>
    <g id="Ideas" stroke="none" stroke-width="1" fill="none" fill-rule="evenodd">
        <g id="Layout---Framed" transform="translate(-999.000000, -155.000000)" fill="#FFFFFF" fill-rule="nonzero">
            <path d="M1036.04361,155 C1037.67649,155 1039,156.283706 1039,157.865387 L1039,192.135138 C1039,193.717343 1037.67649,195 1036.04361,195 L1001.95639,195 C1000.32404,195 999,193.717343 999,192.135663 L999,157.865387 C999,156.283706 1000.32404,155 1001.95639,155 L1036.04361,155 Z M1010.93618,170.644731 L1004.87476,170.644731 L1004.87476,188.792576 L1010.93671,188.792576 L1010.93618,170.644731 Z M1025.81537,170.219366 C1022.65126,170.219366 1021.20443,171.922411 1020.39144,173.15491 L1020.352,173.214 L1020.35247,170.645258 L1014.29157,170.645258 C1014.31445,171.13874 1014.32402,172.870854 1014.32607,175.082093 L1014.32605,177.181064 C1014.32567,177.667135 1014.32505,178.163258 1014.32425,178.663355 L1014.32291,179.415722 C1014.31486,183.561784 1014.29582,187.771604 1014.2918,188.633379 L1014.29104,188.792576 L1020.35194,188.792576 L1020.35194,178.659195 C1020.35194,178.117342 1020.39166,177.574435 1020.55162,177.187548 C1020.98965,176.103316 1021.98699,174.981133 1023.66178,174.981133 C1025.85457,174.981133 1026.73221,176.645168 1026.73221,179.085086 L1026.73221,188.792576 L1032.7931,188.792576 L1032.7931,178.387214 C1032.7931,172.813195 1029.80318,170.219366 1025.81537,170.219366 Z M1007.94679,161.896552 C1005.87211,161.896552 1004.51724,163.251183 1004.51724,165.032234 C1004.51724,166.773752 1005.83239,168.167389 1007.86681,168.167389 L1007.906,168.167389 C1010.01987,168.167389 1011.33555,166.773752 1011.33555,165.032234 C1011.29582,163.251183 1010.01987,161.896552 1007.94679,161.896552 Z" id="icon-linkedin"></path>
        </g>
    </g>
</svg>