<?xml version="1.0" encoding="UTF-8"?>
<svg width="41px" height="40px" viewBox="0 0 41 40" version="1.1" xmlns="http://www.w3.org/2000/svg" xmlns:xlink="http://www.w3.org/1999/xlink">
    <title>icon-github</title>
    <g id="Ideas" stroke="none" stroke-width="1" fill="none" fill-rule="evenodd">
        <g id="Layout---Framed" transform="translate(-1059.000000, -155.000000)" fill="#FFFFFF">
            <path d="M1079.49811,155 C1068.17935,155 1059,164.180841 1059,175.506774 C1059,184.566764 1064.87332,192.252084 1073.01946,194.963661 C1074.04512,195.152489 1074.41889,194.519284 1074.41889,193.975458 C1074.41889,193.48954 1074.40127,192.199212 1074.3912,190.488426 C1068.68903,191.727141 1067.48593,187.739083 1067.48593,187.739083 C1066.55339,185.369915 1065.20934,184.739228 1065.20934,184.739228 C1063.34805,183.467783 1065.35029,183.49296 1065.35029,183.49296 C1067.4079,183.637728 1068.49019,185.60658 1068.49019,185.60658 C1070.31876,188.739874 1073.28877,187.834756 1074.45664,187.309813 C1074.6429,185.985496 1075.17272,185.081637 1075.75791,184.569282 C1071.20599,184.051892 1066.41999,182.292011 1066.41999,174.434228 C1066.41999,172.195981 1067.21913,170.364344 1068.53046,168.931766 C1068.31904,168.413117 1067.61555,166.327191 1068.73182,163.504835 C1068.73182,163.504835 1070.45216,162.953456 1074.36855,165.607126 C1076.00332,165.151419 1077.75764,164.924825 1079.50063,164.916013 C1081.24236,164.924825 1082.99543,165.151419 1084.63271,165.607126 C1088.54658,162.953456 1090.2644,163.504835 1090.2644,163.504835 C1091.38319,166.327191 1090.6797,168.413117 1090.46954,168.931766 C1091.78339,170.364344 1092.57623,172.195981 1092.57623,174.434228 C1092.57623,182.312152 1087.78268,184.045598 1083.21692,184.552917 C1083.95187,185.186122 1084.60754,186.437425 1084.60754,188.350887 C1084.60754,191.091418 1084.58237,193.303229 1084.58237,193.975458 C1084.58237,194.52432 1084.95236,195.16256 1085.99187,194.962402 C1094.13171,192.244531 1100,184.564247 1100,175.506774 C1100,164.180841 1090.82065,155 1079.49811,155" id="icon-github"></path>
        </g>
    </g>
</svg>