<?xml version="1.0" encoding="UTF-8"?>
<svg width="52px" height="41px" viewBox="0 0 52 41" version="1.1" xmlns="http://www.w3.org/2000/svg" xmlns:xlink="http://www.w3.org/1999/xlink">
    <title>icon-back</title>
    <g id="Ideas" stroke="none" stroke-width="1" fill="none" fill-rule="evenodd">
        <g id="Layout---Apance" transform="translate(-99.000000, -130.000000)" fill="#FFFFFF" stroke="#FFFFFF">
            <g id="icon-back" transform="translate(100.000000, 131.000000)">
                <path d="M33.6694189,0.586532382 C32.9882502,-0.195510794 31.854557,-0.195510794 31.1495713,0.586532382 C30.4684027,1.34215518 30.4684027,2.59976515 31.1495713,3.35362659 L43.9266434,17.5272785 L1.76405208,17.5272785 C0.781200381,17.5290398 0,18.3956282 0,19.4859091 C0,20.57619 0.781200381,21.4709602 1.76405208,21.4709602 L43.9266434,21.4709602 L31.1495713,35.6181917 C30.4684027,36.4002348 30.4684027,37.6596062 31.1495713,38.4134676 C31.854557,39.1955108 32.989838,39.1955108 33.6694189,38.4134676 L49.4712607,20.8844278 C50.1762464,20.128805 50.1762464,18.871195 49.4712607,18.1173336 L33.6694189,0.586532382 Z" id="Icon-Back-Arrow" transform="translate(25.000000, 19.500000) rotate(180.000000) translate(-25.000000, -19.500000) "></path>
            </g>
        </g>
    </g>
</svg>